<svg width="1215" height="69" viewBox="0 0 1215 69" fill="none" xmlns="http://www.w3.org/2000/svg">
<path d="M6.00385 62.1972C4.36077 62.1972 3.10546 61.5794 2.23791 60.3438C1.37037 59.095 0.936597 57.3205 0.936597 55.0202C0.936597 52.6936 1.37037 50.9256 2.23791 49.7163C3.10546 48.507 4.36077 47.9024 6.00385 47.9024C7.66007 47.9024 8.91539 48.507 9.76979 49.7163C10.6373 50.9256 11.0711 52.687 11.0711 55.0005C11.0711 57.3139 10.6373 59.095 9.76979 60.3438C8.90224 61.5794 7.64693 62.1972 6.00385 62.1972ZM6.00385 60.1269C6.89769 60.1269 7.55492 59.7194 7.97555 58.9044C8.40932 58.0763 8.62621 56.775 8.62621 55.0005C8.62621 53.2391 8.40932 51.9641 7.97555 51.1754C7.55492 50.3736 6.89769 49.9727 6.00385 49.9727C5.12316 49.9727 4.46593 50.3736 4.03216 51.1754C3.59838 51.9641 3.3815 53.2391 3.3815 55.0005C3.3815 56.775 3.59838 58.0763 4.03216 58.9044C4.46593 59.7194 5.12316 60.1269 6.00385 60.1269Z" fill="#2D3140" fill-opacity="0.68"/>
<path d="M193.211 62.1972C192.304 62.1972 191.423 62.0592 190.569 61.7831C189.714 61.4939 189.018 61.1062 188.479 60.6198L189.307 58.6876C190.503 59.6077 191.791 60.0677 193.171 60.0677C194 60.0677 194.644 59.8574 195.104 59.4368C195.577 59.003 195.814 58.4247 195.814 57.7017C195.814 56.9656 195.59 56.3741 195.143 55.9272C194.696 55.4671 194.085 55.2371 193.31 55.2371C192.205 55.2371 191.292 55.6774 190.569 56.5581H188.873V48.0996H197.411V50.1895H191.338V53.9555C192.034 53.4297 192.889 53.1668 193.901 53.1668C194.782 53.1668 195.544 53.3574 196.188 53.7386C196.845 54.1066 197.351 54.6259 197.706 55.2962C198.074 55.9535 198.258 56.7224 198.258 57.6031C198.258 58.5101 198.055 59.3119 197.647 60.0086C197.24 60.6921 196.655 61.231 195.892 61.6254C195.143 62.0066 194.249 62.1972 193.211 62.1972ZM204.915 62.1972C203.272 62.1972 202.017 61.5794 201.149 60.3438C200.282 59.095 199.848 57.3205 199.848 55.0202C199.848 52.6936 200.282 50.9256 201.149 49.7163C202.017 48.507 203.272 47.9024 204.915 47.9024C206.571 47.9024 207.827 48.507 208.681 49.7163C209.549 50.9256 209.982 52.687 209.982 55.0005C209.982 57.3139 209.549 59.095 208.681 60.3438C207.813 61.5794 206.558 62.1972 204.915 62.1972ZM204.915 60.1269C205.809 60.1269 206.466 59.7194 206.887 58.9044C207.321 58.0763 207.537 56.775 207.537 55.0005C207.537 53.2391 207.321 51.9641 206.887 51.1754C206.466 50.3736 205.809 49.9727 204.915 49.9727C204.034 49.9727 203.377 50.3736 202.943 51.1754C202.51 51.9641 202.293 53.2391 202.293 55.0005C202.293 56.775 202.51 58.0763 202.943 58.9044C203.377 59.7194 204.034 60.1269 204.915 60.1269Z" fill="#2D3140" fill-opacity="0.68"/>
<path d="M389.537 62V59.91H392.672V50.9782L390.247 52.4373L389.261 50.5839L393.401 48.0996H395.196V59.91H398.134V62H389.537ZM405.125 62.1972C403.482 62.1972 402.227 61.5794 401.359 60.3438C400.492 59.095 400.058 57.3205 400.058 55.0202C400.058 52.6936 400.492 50.9256 401.359 49.7163C402.227 48.507 403.482 47.9024 405.125 47.9024C406.782 47.9024 408.037 48.507 408.891 49.7163C409.759 50.9256 410.193 52.687 410.193 55.0005C410.193 57.3139 409.759 59.095 408.891 60.3438C408.024 61.5794 406.768 62.1972 405.125 62.1972ZM405.125 60.1269C406.019 60.1269 406.676 59.7194 407.097 58.9044C407.531 58.0763 407.748 56.775 407.748 55.0005C407.748 53.2391 407.531 51.9641 407.097 51.1754C406.676 50.3736 406.019 49.9727 405.125 49.9727C404.245 49.9727 403.587 50.3736 403.154 51.1754C402.72 51.9641 402.503 53.2391 402.503 55.0005C402.503 56.775 402.72 58.0763 403.154 58.9044C403.587 59.7194 404.245 60.1269 405.125 60.1269ZM416.948 62.1972C415.305 62.1972 414.049 61.5794 413.182 60.3438C412.314 59.095 411.881 57.3205 411.881 55.0202C411.881 52.6936 412.314 50.9256 413.182 49.7163C414.049 48.507 415.305 47.9024 416.948 47.9024C418.604 47.9024 419.859 48.507 420.714 49.7163C421.581 50.9256 422.015 52.687 422.015 55.0005C422.015 57.3139 421.581 59.095 420.714 60.3438C419.846 61.5794 418.591 62.1972 416.948 62.1972ZM416.948 60.1269C417.842 60.1269 418.499 59.7194 418.919 58.9044C419.353 58.0763 419.57 56.775 419.57 55.0005C419.57 53.2391 419.353 51.9641 418.919 51.1754C418.499 50.3736 417.842 49.9727 416.948 49.9727C416.067 49.9727 415.41 50.3736 414.976 51.1754C414.542 51.9641 414.325 53.2391 414.325 55.0005C414.325 56.775 414.542 58.0763 414.976 58.9044C415.41 59.7194 416.067 60.1269 416.948 60.1269Z" fill="#2D3140" fill-opacity="0.68"/>
<path d="M585.844 62V60.1269L590.339 55.3357C590.944 54.6784 591.378 54.1001 591.64 53.6006C591.903 53.0879 592.035 52.5687 592.035 52.0429C592.035 50.7022 591.226 50.0318 589.61 50.0318C588.348 50.0318 587.184 50.505 586.12 51.4514L585.272 49.5586C585.824 49.0591 586.514 48.6582 587.342 48.3559C588.17 48.0535 589.031 47.9024 589.925 47.9024C591.41 47.9024 592.547 48.2376 593.336 48.9079C594.138 49.5783 594.539 50.5379 594.539 51.7866C594.539 52.6279 594.335 53.4363 593.928 54.2118C593.533 54.9873 592.909 55.822 592.054 56.7159L588.998 59.91H595.071V62H585.844ZM602.004 62.1972C600.361 62.1972 599.105 61.5794 598.238 60.3438C597.37 59.095 596.937 57.3205 596.937 55.0202C596.937 52.6936 597.37 50.9256 598.238 49.7163C599.105 48.507 600.361 47.9024 602.004 47.9024C603.66 47.9024 604.915 48.507 605.77 49.7163C606.637 50.9256 607.071 52.687 607.071 55.0005C607.071 57.3139 606.637 59.095 605.77 60.3438C604.902 61.5794 603.647 62.1972 602.004 62.1972ZM602.004 60.1269C602.898 60.1269 603.555 59.7194 603.976 58.9044C604.409 58.0763 604.626 56.775 604.626 55.0005C604.626 53.2391 604.409 51.9641 603.976 51.1754C603.555 50.3736 602.898 49.9727 602.004 49.9727C601.123 49.9727 600.466 50.3736 600.032 51.1754C599.598 51.9641 599.381 53.2391 599.381 55.0005C599.381 56.775 599.598 58.0763 600.032 58.9044C600.466 59.7194 601.123 60.1269 602.004 60.1269ZM613.826 62.1972C612.183 62.1972 610.928 61.5794 610.06 60.3438C609.193 59.095 608.759 57.3205 608.759 55.0202C608.759 52.6936 609.193 50.9256 610.06 49.7163C610.928 48.507 612.183 47.9024 613.826 47.9024C615.483 47.9024 616.738 48.507 617.592 49.7163C618.46 50.9256 618.894 52.687 618.894 55.0005C618.894 57.3139 618.46 59.095 617.592 60.3438C616.725 61.5794 615.469 62.1972 613.826 62.1972ZM613.826 60.1269C614.72 60.1269 615.377 59.7194 615.798 58.9044C616.232 58.0763 616.449 56.775 616.449 55.0005C616.449 53.2391 616.232 51.9641 615.798 51.1754C615.377 50.3736 614.72 49.9727 613.826 49.9727C612.946 49.9727 612.288 50.3736 611.855 51.1754C611.421 51.9641 611.204 53.2391 611.204 55.0005C611.204 56.775 611.421 58.0763 611.855 58.9044C612.288 59.7194 612.946 60.1269 613.826 60.1269Z" fill="#2D3140" fill-opacity="0.68"/>
<path d="M791.905 62.1972C790.959 62.1972 790.052 62.0592 789.184 61.7831C788.33 61.4939 787.62 61.1062 787.055 60.6198L787.883 58.6876C789.066 59.6077 790.381 60.0677 791.826 60.0677C793.601 60.0677 794.488 59.3711 794.488 57.9777C794.488 57.3205 794.265 56.8342 793.818 56.5187C793.384 56.1901 792.747 56.0258 791.905 56.0258H789.677V53.9358H791.669C792.405 53.9358 792.99 53.7583 793.424 53.4034C793.857 53.0354 794.074 52.5293 794.074 51.8852C794.074 51.2806 793.87 50.8205 793.463 50.505C793.069 50.1895 792.49 50.0318 791.728 50.0318C790.361 50.0318 789.158 50.505 788.12 51.4514L787.292 49.5586C787.844 49.0328 788.534 48.6253 789.362 48.3362C790.19 48.047 791.051 47.9024 791.945 47.9024C793.391 47.9024 794.515 48.231 795.316 48.8882C796.118 49.5323 796.519 50.4327 796.519 51.5895C796.519 52.3387 796.329 52.9959 795.947 53.5611C795.566 54.1264 795.047 54.5339 794.39 54.7836C795.192 55.0071 795.816 55.4211 796.263 56.0258C796.71 56.6173 796.933 57.3402 796.933 58.1946C796.933 59.4302 796.486 60.4095 795.592 61.1325C794.699 61.8423 793.47 62.1972 791.905 62.1972ZM804.004 62.1972C802.361 62.1972 801.105 61.5794 800.238 60.3438C799.37 59.095 798.937 57.3205 798.937 55.0202C798.937 52.6936 799.37 50.9256 800.238 49.7163C801.105 48.507 802.361 47.9024 804.004 47.9024C805.66 47.9024 806.915 48.507 807.77 49.7163C808.637 50.9256 809.071 52.687 809.071 55.0005C809.071 57.3139 808.637 59.095 807.77 60.3438C806.902 61.5794 805.647 62.1972 804.004 62.1972ZM804.004 60.1269C804.898 60.1269 805.555 59.7194 805.976 58.9044C806.409 58.0763 806.626 56.775 806.626 55.0005C806.626 53.2391 806.409 51.9641 805.976 51.1754C805.555 50.3736 804.898 49.9727 804.004 49.9727C803.123 49.9727 802.466 50.3736 802.032 51.1754C801.598 51.9641 801.381 53.2391 801.381 55.0005C801.381 56.775 801.598 58.0763 802.032 58.9044C802.466 59.7194 803.123 60.1269 804.004 60.1269ZM815.826 62.1972C814.183 62.1972 812.928 61.5794 812.06 60.3438C811.193 59.095 810.759 57.3205 810.759 55.0202C810.759 52.6936 811.193 50.9256 812.06 49.7163C812.928 48.507 814.183 47.9024 815.826 47.9024C817.483 47.9024 818.738 48.507 819.592 49.7163C820.46 50.9256 820.894 52.687 820.894 55.0005C820.894 57.3139 820.46 59.095 819.592 60.3438C818.725 61.5794 817.469 62.1972 815.826 62.1972ZM815.826 60.1269C816.72 60.1269 817.377 59.7194 817.798 58.9044C818.232 58.0763 818.449 56.775 818.449 55.0005C818.449 53.2391 818.232 51.9641 817.798 51.1754C817.377 50.3736 816.72 49.9727 815.826 49.9727C814.946 49.9727 814.288 50.3736 813.855 51.1754C813.421 51.9641 813.204 53.2391 813.204 55.0005C813.204 56.775 813.421 58.0763 813.855 58.9044C814.288 59.7194 814.946 60.1269 815.826 60.1269Z" fill="#2D3140" fill-opacity="0.68"/>
<path d="M996.187 62V59.3579H990.134V57.5045L996.621 48.0996H998.711V57.2679H1000.66V59.3579H998.711V62H996.187ZM996.187 57.2679V51.9641L992.559 57.2679H996.187ZM1007.04 62.1972C1005.4 62.1972 1004.15 61.5794 1003.28 60.3438C1002.41 59.095 1001.98 57.3205 1001.98 55.0202C1001.98 52.6936 1002.41 50.9256 1003.28 49.7163C1004.15 48.507 1005.4 47.9024 1007.04 47.9024C1008.7 47.9024 1009.96 48.507 1010.81 49.7163C1011.68 50.9256 1012.11 52.687 1012.11 55.0005C1012.11 57.3139 1011.68 59.095 1010.81 60.3438C1009.94 61.5794 1008.69 62.1972 1007.04 62.1972ZM1007.04 60.1269C1007.94 60.1269 1008.59 59.7194 1009.02 58.9044C1009.45 58.0763 1009.67 56.775 1009.67 55.0005C1009.67 53.2391 1009.45 51.9641 1009.02 51.1754C1008.59 50.3736 1007.94 49.9727 1007.04 49.9727C1006.16 49.9727 1005.51 50.3736 1005.07 51.1754C1004.64 51.9641 1004.42 53.2391 1004.42 55.0005C1004.42 56.775 1004.64 58.0763 1005.07 58.9044C1005.51 59.7194 1006.16 60.1269 1007.04 60.1269ZM1018.87 62.1972C1017.22 62.1972 1015.97 61.5794 1015.1 60.3438C1014.23 59.095 1013.8 57.3205 1013.8 55.0202C1013.8 52.6936 1014.23 50.9256 1015.1 49.7163C1015.97 48.507 1017.22 47.9024 1018.87 47.9024C1020.52 47.9024 1021.78 48.507 1022.63 49.7163C1023.5 50.9256 1023.93 52.687 1023.93 55.0005C1023.93 57.3139 1023.5 59.095 1022.63 60.3438C1021.76 61.5794 1020.51 62.1972 1018.87 62.1972ZM1018.87 60.1269C1019.76 60.1269 1020.42 59.7194 1020.84 58.9044C1021.27 58.0763 1021.49 56.775 1021.49 55.0005C1021.49 53.2391 1021.27 51.9641 1020.84 51.1754C1020.42 50.3736 1019.76 49.9727 1018.87 49.9727C1017.99 49.9727 1017.33 50.3736 1016.89 51.1754C1016.46 51.9641 1016.24 53.2391 1016.24 55.0005C1016.24 56.775 1016.46 58.0763 1016.89 58.9044C1017.33 59.7194 1017.99 60.1269 1018.87 60.1269Z" fill="#2D3140" fill-opacity="0.68"/>
<path d="M1172.71 62.1972C1171.8 62.1972 1170.92 62.0592 1170.07 61.7831C1169.21 61.4939 1168.52 61.1062 1167.98 60.6198L1168.81 58.6876C1170 59.6077 1171.29 60.0677 1172.67 60.0677C1173.5 60.0677 1174.14 59.8574 1174.6 59.4368C1175.08 59.003 1175.31 58.4247 1175.31 57.7017C1175.31 56.9656 1175.09 56.3741 1174.64 55.9272C1174.2 55.4671 1173.59 55.2371 1172.81 55.2371C1171.71 55.2371 1170.79 55.6774 1170.07 56.5581H1168.37V48.0996H1176.91V50.1895H1170.84V53.9555C1171.53 53.4297 1172.39 53.1668 1173.4 53.1668C1174.28 53.1668 1175.04 53.3574 1175.69 53.7386C1176.35 54.1066 1176.85 54.6259 1177.21 55.2962C1177.57 55.9535 1177.76 56.7224 1177.76 57.6031C1177.76 58.5101 1177.55 59.3119 1177.15 60.0086C1176.74 60.6921 1176.15 61.231 1175.39 61.6254C1174.64 62.0066 1173.75 62.1972 1172.71 62.1972ZM1184.42 62.1972C1182.77 62.1972 1181.52 61.5794 1180.65 60.3438C1179.78 59.095 1179.35 57.3205 1179.35 55.0202C1179.35 52.6936 1179.78 50.9256 1180.65 49.7163C1181.52 48.507 1182.77 47.9024 1184.42 47.9024C1186.07 47.9024 1187.33 48.507 1188.18 49.7163C1189.05 50.9256 1189.48 52.687 1189.48 55.0005C1189.48 57.3139 1189.05 59.095 1188.18 60.3438C1187.31 61.5794 1186.06 62.1972 1184.42 62.1972ZM1184.42 60.1269C1185.31 60.1269 1185.97 59.7194 1186.39 58.9044C1186.82 58.0763 1187.04 56.775 1187.04 55.0005C1187.04 53.2391 1186.82 51.9641 1186.39 51.1754C1185.97 50.3736 1185.31 49.9727 1184.42 49.9727C1183.53 49.9727 1182.88 50.3736 1182.44 51.1754C1182.01 51.9641 1181.79 53.2391 1181.79 55.0005C1181.79 56.775 1182.01 58.0763 1182.44 58.9044C1182.88 59.7194 1183.53 60.1269 1184.42 60.1269ZM1196.24 62.1972C1194.59 62.1972 1193.34 61.5794 1192.47 60.3438C1191.6 59.095 1191.17 57.3205 1191.17 55.0202C1191.17 52.6936 1191.6 50.9256 1192.47 49.7163C1193.34 48.507 1194.59 47.9024 1196.24 47.9024C1197.89 47.9024 1199.15 48.507 1200 49.7163C1200.87 50.9256 1201.3 52.687 1201.3 55.0005C1201.3 57.3139 1200.87 59.095 1200 60.3438C1199.14 61.5794 1197.88 62.1972 1196.24 62.1972ZM1196.24 60.1269C1197.13 60.1269 1197.79 59.7194 1198.21 58.9044C1198.64 58.0763 1198.86 56.775 1198.86 55.0005C1198.86 53.2391 1198.64 51.9641 1198.21 51.1754C1197.79 50.3736 1197.13 49.9727 1196.24 49.9727C1195.36 49.9727 1194.7 50.3736 1194.27 51.1754C1193.83 51.9641 1193.62 53.2391 1193.62 55.0005C1193.62 56.775 1193.83 58.0763 1194.27 58.9044C1194.7 59.7194 1195.36 60.1269 1196.24 60.1269ZM1207.15 61.2113V57.2088H1203.25V55.4737H1207.15V51.5895H1208.97V55.4737H1212.87V57.2088H1208.97V61.2113H1207.15Z" fill="#2D3140" fill-opacity="0.68"/>
<path d="M73.32 20.2C71.76 20.2 70.44 19.9067 69.36 19.32C68.2933 18.7333 67.48 17.9 66.92 16.82C66.36 15.74 66.08 14.46 66.08 12.98C66.08 11.4867 66.3667 10.2 66.94 9.12C67.5133 8.02667 68.34 7.18667 69.42 6.6C70.5 6 71.7933 5.7 73.3 5.7C74.2867 5.7 75.2133 5.84667 76.08 6.14C76.9467 6.42 77.6667 6.81333 78.24 7.32L77.38 9.32C76.7533 8.82667 76.1133 8.47333 75.46 8.26C74.8067 8.04667 74.0867 7.94 73.3 7.94C71.8067 7.94 70.6733 8.37333 69.9 9.24C69.14 10.1067 68.76 11.3533 68.76 12.98C68.76 14.62 69.1533 15.8667 69.94 16.72C70.7267 17.5733 71.8933 18 73.44 18C73.88 18 74.3267 17.9667 74.78 17.9C75.2467 17.82 75.7067 17.7067 76.16 17.56V14.28L72.92 14.28L72.92 12.38L78.3 12.38V19.16C77.6467 19.48 76.8733 19.7333 75.98 19.92C75.0867 20.1067 74.2 20.2 73.32 20.2ZM85.4866 20.2C84.4732 20.2 83.5932 19.9933 82.8466 19.58C82.0999 19.1667 81.5199 18.58 81.1066 17.82C80.6932 17.0467 80.4866 16.14 80.4866 15.1C80.4866 14.06 80.6932 13.16 81.1066 12.4C81.5199 11.64 82.0999 11.0533 82.8466 10.64C83.5932 10.2267 84.4732 10.02 85.4866 10.02C86.4999 10.02 87.3799 10.2267 88.1266 10.64C88.8732 11.0533 89.4532 11.64 89.8666 12.4C90.2799 13.16 90.4866 14.06 90.4866 15.1C90.4866 16.14 90.2799 17.0467 89.8666 17.82C89.4532 18.58 88.8732 19.1667 88.1266 19.58C87.3799 19.9933 86.4999 20.2 85.4866 20.2ZM85.4866 18.3C86.2332 18.3 86.8332 18.0333 87.2866 17.5C87.7399 16.9533 87.9666 16.1533 87.9666 15.1C87.9666 14.0333 87.7399 13.24 87.2866 12.72C86.8332 12.1867 86.2332 11.92 85.4866 11.92C84.7399 11.92 84.1399 12.1867 83.6866 12.72C83.2332 13.24 83.0066 14.0333 83.0066 15.1C83.0066 16.1533 83.2332 16.9533 83.6866 17.5C84.1399 18.0333 84.7399 18.3 85.4866 18.3ZM97.01 20.2C95.9967 20.2 95.1167 19.9933 94.37 19.58C93.6233 19.1667 93.0433 18.58 92.63 17.82C92.2167 17.0467 92.01 16.14 92.01 15.1C92.01 14.06 92.2167 13.16 92.63 12.4C93.0433 11.64 93.6233 11.0533 94.37 10.64C95.1167 10.2267 95.9967 10.02 97.01 10.02C98.0233 10.02 98.9033 10.2267 99.65 10.64C100.397 11.0533 100.977 11.64 101.39 12.4C101.803 13.16 102.01 14.06 102.01 15.1C102.01 16.14 101.803 17.0467 101.39 17.82C100.977 18.58 100.397 19.1667 99.65 19.58C98.9033 19.9933 98.0233 20.2 97.01 20.2ZM97.01 18.3C97.7567 18.3 98.3567 18.0333 98.81 17.5C99.2633 16.9533 99.49 16.1533 99.49 15.1C99.49 14.0333 99.2633 13.24 98.81 12.72C98.3567 12.1867 97.7567 11.92 97.01 11.92C96.2633 11.92 95.6633 12.1867 95.21 12.72C94.7567 13.24 94.53 14.0333 94.53 15.1C94.53 16.1533 94.7567 16.9533 95.21 17.5C95.6633 18.0333 96.2633 18.3 97.01 18.3ZM107.833 20.2C106.98 20.2 106.227 19.9933 105.573 19.58C104.933 19.1667 104.433 18.58 104.073 17.82C103.713 17.0467 103.533 16.14 103.533 15.1C103.533 14.0467 103.713 13.1467 104.073 12.4C104.433 11.64 104.933 11.0533 105.573 10.64C106.227 10.2267 106.98 10.02 107.833 10.02C108.527 10.02 109.153 10.1733 109.713 10.48C110.273 10.7867 110.693 11.1933 110.973 11.7L110.973 5.9L113.473 5.9L113.473 20L111.033 20V18.38C110.767 18.94 110.347 19.3867 109.773 19.72C109.2 20.04 108.553 20.2 107.833 20.2ZM108.533 18.3C109.28 18.3 109.88 18.0333 110.333 17.5C110.787 16.9533 111.013 16.1533 111.013 15.1C111.013 14.0333 110.787 13.24 110.333 12.72C109.88 12.1867 109.28 11.92 108.533 11.92C107.787 11.92 107.187 12.1867 106.733 12.72C106.28 13.24 106.053 14.0333 106.053 15.1C106.053 16.1533 106.28 16.9533 106.733 17.5C107.187 18.0333 107.787 18.3 108.533 18.3Z" fill="#2D3140"/>
<path d="M251.58 20L251.58 5.9L253.72 5.9L258.72 15.12L263.7 5.9L265.8 5.9L265.8 20L263.48 20L263.48 10.5L259.44 17.86L257.94 17.86L253.9 10.54V20L251.58 20ZM273.123 20.2C272.11 20.2 271.23 19.9933 270.483 19.58C269.737 19.1667 269.157 18.58 268.743 17.82C268.33 17.0467 268.123 16.14 268.123 15.1C268.123 14.06 268.33 13.16 268.743 12.4C269.157 11.64 269.737 11.0533 270.483 10.64C271.23 10.2267 272.11 10.02 273.123 10.02C274.137 10.02 275.017 10.2267 275.763 10.64C276.51 11.0533 277.09 11.64 277.503 12.4C277.917 13.16 278.123 14.06 278.123 15.1C278.123 16.14 277.917 17.0467 277.503 17.82C277.09 18.58 276.51 19.1667 275.763 19.58C275.017 19.9933 274.137 20.2 273.123 20.2ZM273.123 18.3C273.87 18.3 274.47 18.0333 274.923 17.5C275.377 16.9533 275.603 16.1533 275.603 15.1C275.603 14.0333 275.377 13.24 274.923 12.72C274.47 12.1867 273.87 11.92 273.123 11.92C272.377 11.92 271.777 12.1867 271.323 12.72C270.87 13.24 270.643 14.0333 270.643 15.1C270.643 16.1533 270.87 16.9533 271.323 17.5C271.777 18.0333 272.377 18.3 273.123 18.3ZM283.947 20.2C283.093 20.2 282.34 19.9933 281.687 19.58C281.047 19.1667 280.547 18.58 280.187 17.82C279.827 17.0467 279.647 16.14 279.647 15.1C279.647 14.0467 279.827 13.1467 280.187 12.4C280.547 11.64 281.047 11.0533 281.687 10.64C282.34 10.2267 283.093 10.02 283.947 10.02C284.64 10.02 285.267 10.1733 285.827 10.48C286.387 10.7867 286.807 11.1933 287.087 11.7V5.9L289.587 5.9L289.587 20L287.147 20L287.147 18.38C286.88 18.94 286.46 19.3867 285.887 19.72C285.313 20.04 284.667 20.2 283.947 20.2ZM284.647 18.3C285.393 18.3 285.993 18.0333 286.447 17.5C286.9 16.9533 287.127 16.1533 287.127 15.1C287.127 14.0333 286.9 13.24 286.447 12.72C285.993 12.1867 285.393 11.92 284.647 11.92C283.9 11.92 283.3 12.1867 282.847 12.72C282.393 13.24 282.167 14.0333 282.167 15.1C282.167 16.1533 282.393 16.9533 282.847 17.5C283.3 18.0333 283.9 18.3 284.647 18.3ZM296.999 20.2C295.892 20.2 294.939 19.9933 294.139 19.58C293.339 19.1667 292.719 18.58 292.279 17.82C291.852 17.06 291.639 16.16 291.639 15.12C291.639 14.1067 291.846 13.22 292.259 12.46C292.686 11.7 293.266 11.1067 293.999 10.68C294.746 10.24 295.592 10.02 296.539 10.02C297.926 10.02 299.019 10.46 299.819 11.34C300.632 12.22 301.039 13.42 301.039 14.94V15.68L294.039 15.68C294.226 17.4267 295.226 18.3 297.039 18.3C297.586 18.3 298.132 18.22 298.679 18.06C299.226 17.8867 299.726 17.62 300.179 17.26L300.879 18.94C300.412 19.3267 299.826 19.6333 299.119 19.86C298.412 20.0867 297.706 20.2 296.999 20.2ZM296.639 11.72C295.906 11.72 295.312 11.9467 294.859 12.4C294.406 12.8533 294.132 13.4667 294.039 14.24L298.959 14.24C298.906 13.4267 298.679 12.8067 298.279 12.38C297.892 11.94 297.346 11.72 296.639 11.72ZM303.019 20L303.019 10.22L305.459 10.22V11.94C305.939 10.78 306.965 10.14 308.539 10.02L309.299 9.96L309.459 12.08L308.019 12.22C306.379 12.38 305.559 13.22 305.559 14.74L305.559 20L303.019 20ZM313.973 20.2C313.266 20.2 312.633 20.0667 312.073 19.8C311.526 19.52 311.093 19.1467 310.773 18.68C310.466 18.2133 310.313 17.6867 310.313 17.1C310.313 16.38 310.5 15.8133 310.873 15.4C311.246 14.9733 311.853 14.6667 312.693 14.48C313.533 14.2933 314.66 14.2 316.073 14.2H316.773V13.78C316.773 13.1133 316.626 12.6333 316.333 12.34C316.04 12.0467 315.546 11.9 314.853 11.9C314.306 11.9 313.746 11.9867 313.173 12.16C312.6 12.32 312.02 12.5733 311.433 12.92L310.713 11.22C311.06 10.98 311.466 10.7733 311.933 10.6C312.413 10.4133 312.913 10.2733 313.433 10.18C313.966 10.0733 314.466 10.02 314.933 10.02C316.36 10.02 317.42 10.3533 318.113 11.02C318.806 11.6733 319.153 12.6933 319.153 14.08V20L316.813 20V18.44C316.586 18.9867 316.226 19.42 315.733 19.74C315.24 20.0467 314.653 20.2 313.973 20.2ZM314.493 18.48C315.146 18.48 315.686 18.2533 316.113 17.8C316.553 17.3467 316.773 16.7733 316.773 16.08V15.64H316.093C314.84 15.64 313.966 15.74 313.473 15.94C312.993 16.1267 312.753 16.4733 312.753 16.98C312.753 17.42 312.906 17.78 313.213 18.06C313.52 18.34 313.946 18.48 314.493 18.48ZM326.171 20.2C323.584 20.2 322.291 18.92 322.291 16.36V12.1L320.411 12.1V10.22L322.291 10.22V7.3L324.791 7.3V10.22L327.751 10.22V12.1L324.791 12.1V16.22C324.791 16.86 324.931 17.34 325.211 17.66C325.491 17.98 325.944 18.14 326.571 18.14C326.757 18.14 326.951 18.12 327.151 18.08C327.351 18.0267 327.557 17.9733 327.771 17.92L328.151 19.76C327.911 19.8933 327.604 20 327.231 20.08C326.871 20.16 326.517 20.2 326.171 20.2ZM334.089 20.2C332.982 20.2 332.029 19.9933 331.229 19.58C330.429 19.1667 329.809 18.58 329.369 17.82C328.942 17.06 328.729 16.16 328.729 15.12C328.729 14.1067 328.935 13.22 329.349 12.46C329.775 11.7 330.355 11.1067 331.089 10.68C331.835 10.24 332.682 10.02 333.629 10.02C335.015 10.02 336.109 10.46 336.909 11.34C337.722 12.22 338.129 13.42 338.129 14.94V15.68L331.129 15.68C331.315 17.4267 332.315 18.3 334.129 18.3C334.675 18.3 335.222 18.22 335.769 18.06C336.315 17.8867 336.815 17.62 337.269 17.26L337.969 18.94C337.502 19.3267 336.915 19.6333 336.209 19.86C335.502 20.0867 334.795 20.2 334.089 20.2ZM333.729 11.72C332.995 11.72 332.402 11.9467 331.949 12.4C331.495 12.8533 331.222 13.4667 331.129 14.24L336.049 14.24C335.995 13.4267 335.769 12.8067 335.369 12.38C334.982 11.94 334.435 11.72 333.729 11.72Z" fill="#2D3140"/>
<path d="M482.54 20L482.54 5.9L488.66 5.9C490.207 5.9 491.4 6.28667 492.24 7.06C493.08 7.83333 493.5 8.91333 493.5 10.3C493.5 11.6867 493.08 12.7733 492.24 13.56C491.4 14.3333 490.207 14.72 488.66 14.72L485.1 14.72L485.1 20L482.54 20ZM485.1 12.7L488.26 12.7C490.1 12.7 491.02 11.9 491.02 10.3C491.02 8.71333 490.1 7.92 488.26 7.92L485.1 7.92V12.7ZM499.299 20.2C498.286 20.2 497.406 19.9933 496.659 19.58C495.912 19.1667 495.332 18.58 494.919 17.82C494.506 17.0467 494.299 16.14 494.299 15.1C494.299 14.06 494.506 13.16 494.919 12.4C495.332 11.64 495.912 11.0533 496.659 10.64C497.406 10.2267 498.286 10.02 499.299 10.02C500.312 10.02 501.192 10.2267 501.939 10.64C502.686 11.0533 503.266 11.64 503.679 12.4C504.092 13.16 504.299 14.06 504.299 15.1C504.299 16.14 504.092 17.0467 503.679 17.82C503.266 18.58 502.686 19.1667 501.939 19.58C501.192 19.9933 500.312 20.2 499.299 20.2ZM499.299 18.3C500.046 18.3 500.646 18.0333 501.099 17.5C501.552 16.9533 501.779 16.1533 501.779 15.1C501.779 14.0333 501.552 13.24 501.099 12.72C500.646 12.1867 500.046 11.92 499.299 11.92C498.552 11.92 497.952 12.1867 497.499 12.72C497.046 13.24 496.819 14.0333 496.819 15.1C496.819 16.1533 497.046 16.9533 497.499 17.5C497.952 18.0333 498.552 18.3 499.299 18.3ZM510.823 20.2C509.809 20.2 508.929 19.9933 508.183 19.58C507.436 19.1667 506.856 18.58 506.443 17.82C506.029 17.0467 505.823 16.14 505.823 15.1C505.823 14.06 506.029 13.16 506.443 12.4C506.856 11.64 507.436 11.0533 508.183 10.64C508.929 10.2267 509.809 10.02 510.823 10.02C511.836 10.02 512.716 10.2267 513.463 10.64C514.209 11.0533 514.789 11.64 515.203 12.4C515.616 13.16 515.823 14.06 515.823 15.1C515.823 16.14 515.616 17.0467 515.203 17.82C514.789 18.58 514.209 19.1667 513.463 19.58C512.716 19.9933 511.836 20.2 510.823 20.2ZM510.823 18.3C511.569 18.3 512.169 18.0333 512.623 17.5C513.076 16.9533 513.303 16.1533 513.303 15.1C513.303 14.0333 513.076 13.24 512.623 12.72C512.169 12.1867 511.569 11.92 510.823 11.92C510.076 11.92 509.476 12.1867 509.023 12.72C508.569 13.24 508.343 14.0333 508.343 15.1C508.343 16.1533 508.569 16.9533 509.023 17.5C509.476 18.0333 510.076 18.3 510.823 18.3ZM517.886 20V10.22L520.326 10.22V11.94C520.806 10.78 521.833 10.14 523.406 10.02L524.166 9.96L524.326 12.08L522.886 12.22C521.246 12.38 520.426 13.22 520.426 14.74V20L517.886 20Z" fill="#2D3140"/>
<path d="M873.4 20.2C872.293 20.2 871.267 20.06 870.32 19.78C869.373 19.4867 868.573 19.0933 867.92 18.6L868.7 16.58C869.353 17.0467 870.067 17.4067 870.84 17.66C871.627 17.9133 872.48 18.04 873.4 18.04C874.453 18.04 875.22 17.8667 875.7 17.52C876.18 17.16 876.42 16.7 876.42 16.14C876.42 15.6733 876.247 15.3067 875.9 15.04C875.567 14.7733 874.987 14.5533 874.16 14.38L871.96 13.92C869.453 13.3867 868.2 12.1 868.2 10.06C868.2 9.18 868.433 8.41333 868.9 7.76C869.367 7.10667 870.013 6.6 870.84 6.24C871.667 5.88 872.62 5.7 873.7 5.7C874.66 5.7 875.56 5.84667 876.4 6.14C877.24 6.42 877.94 6.82 878.5 7.34L877.72 9.26C876.613 8.32667 875.267 7.86 873.68 7.86C872.76 7.86 872.04 8.05333 871.52 8.44C871 8.82667 870.74 9.33333 870.74 9.96C870.74 10.44 870.9 10.8267 871.22 11.12C871.54 11.4 872.087 11.62 872.86 11.78L875.04 12.24C876.36 12.52 877.34 12.96 877.98 13.56C878.633 14.16 878.96 14.96 878.96 15.96C878.96 16.8 878.733 17.54 878.28 18.18C877.827 18.82 877.18 19.32 876.34 19.68C875.513 20.0267 874.533 20.2 873.4 20.2ZM885.737 20.2C884.631 20.2 883.677 19.9933 882.877 19.58C882.077 19.1667 881.457 18.58 881.017 17.82C880.591 17.06 880.377 16.16 880.377 15.12C880.377 14.1067 880.584 13.22 880.997 12.46C881.424 11.7 882.004 11.1067 882.737 10.68C883.484 10.24 884.331 10.02 885.277 10.02C886.664 10.02 887.757 10.46 888.557 11.34C889.371 12.22 889.777 13.42 889.777 14.94V15.68L882.777 15.68C882.964 17.4267 883.964 18.3 885.777 18.3C886.324 18.3 886.871 18.22 887.417 18.06C887.964 17.8867 888.464 17.62 888.917 17.26L889.617 18.94C889.151 19.3267 888.564 19.6333 887.857 19.86C887.151 20.0867 886.444 20.2 885.737 20.2ZM885.377 11.72C884.644 11.72 884.051 11.9467 883.597 12.4C883.144 12.8533 882.871 13.4667 882.777 14.24L887.697 14.24C887.644 13.4267 887.417 12.8067 887.017 12.38C886.631 11.94 886.084 11.72 885.377 11.72ZM894.481 20L890.241 10.22L892.901 10.22L895.621 17.06L898.441 10.22L900.941 10.22L896.641 20L894.481 20ZM906.772 20.2C905.666 20.2 904.712 19.9933 903.912 19.58C903.112 19.1667 902.492 18.58 902.052 17.82C901.626 17.06 901.412 16.16 901.412 15.12C901.412 14.1067 901.619 13.22 902.032 12.46C902.459 11.7 903.039 11.1067 903.772 10.68C904.519 10.24 905.366 10.02 906.312 10.02C907.699 10.02 908.792 10.46 909.592 11.34C910.406 12.22 910.812 13.42 910.812 14.94V15.68L903.812 15.68C903.999 17.4267 904.999 18.3 906.812 18.3C907.359 18.3 907.906 18.22 908.452 18.06C908.999 17.8867 909.499 17.62 909.952 17.26L910.652 18.94C910.186 19.3267 909.599 19.6333 908.892 19.86C908.186 20.0867 907.479 20.2 906.772 20.2ZM906.412 11.72C905.679 11.72 905.086 11.9467 904.632 12.4C904.179 12.8533 903.906 13.4667 903.812 14.24L908.732 14.24C908.679 13.4267 908.452 12.8067 908.052 12.38C907.666 11.94 907.119 11.72 906.412 11.72ZM912.792 20V10.22L915.232 10.22V11.94C915.712 10.78 916.739 10.14 918.312 10.02L919.072 9.96L919.232 12.08L917.792 12.22C916.152 12.38 915.332 13.22 915.332 14.74V20L912.792 20ZM925.288 20.2C924.181 20.2 923.228 19.9933 922.428 19.58C921.628 19.1667 921.008 18.58 920.568 17.82C920.141 17.06 919.928 16.16 919.928 15.12C919.928 14.1067 920.135 13.22 920.548 12.46C920.975 11.7 921.555 11.1067 922.288 10.68C923.035 10.24 923.881 10.02 924.828 10.02C926.215 10.02 927.308 10.46 928.108 11.34C928.921 12.22 929.328 13.42 929.328 14.94V15.68L922.328 15.68C922.515 17.4267 923.515 18.3 925.328 18.3C925.875 18.3 926.421 18.22 926.968 18.06C927.515 17.8867 928.015 17.62 928.468 17.26L929.168 18.94C928.701 19.3267 928.115 19.6333 927.408 19.86C926.701 20.0867 925.995 20.2 925.288 20.2ZM924.928 11.72C924.195 11.72 923.601 11.9467 923.148 12.4C922.695 12.8533 922.421 13.4667 922.328 14.24L927.248 14.24C927.195 13.4267 926.968 12.8067 926.568 12.38C926.181 11.94 925.635 11.72 924.928 11.72Z" fill="#2D3140"/>
<path d="M655.4 20.2C653.467 20.2 651.987 19.7 650.96 18.7C649.947 17.6867 649.44 16.1933 649.44 14.22V5.9L652 5.9V14.2C652 15.4667 652.287 16.42 652.86 17.06C653.447 17.6867 654.293 18 655.4 18C657.653 18 658.78 16.7333 658.78 14.2V5.9L661.32 5.9V14.22C661.32 16.1933 660.82 17.6867 659.82 18.7C658.82 19.7 657.347 20.2 655.4 20.2ZM664.066 20V10.22L666.506 10.22V11.74C666.839 11.18 667.286 10.7533 667.846 10.46C668.419 10.1667 669.059 10.02 669.766 10.02C672.072 10.02 673.226 11.36 673.226 14.04V20L670.726 20V14.16C670.726 13.4 670.579 12.8467 670.286 12.5C670.006 12.1533 669.566 11.98 668.966 11.98C668.232 11.98 667.646 12.2133 667.206 12.68C666.779 13.1333 666.566 13.74 666.566 14.5V20L664.066 20ZM675.765 20V5.9L678.265 5.9V11.64C678.598 11.1067 679.045 10.7067 679.605 10.44C680.165 10.16 680.785 10.02 681.465 10.02C683.772 10.02 684.925 11.36 684.925 14.04V20L682.425 20V14.16C682.425 13.4 682.278 12.8467 681.985 12.5C681.705 12.1533 681.265 11.98 680.665 11.98C679.932 11.98 679.345 12.2133 678.905 12.68C678.478 13.1333 678.265 13.74 678.265 14.5V20L675.765 20ZM692.284 20.2C691.177 20.2 690.224 19.9933 689.424 19.58C688.624 19.1667 688.004 18.58 687.564 17.82C687.137 17.06 686.924 16.16 686.924 15.12C686.924 14.1067 687.131 13.22 687.544 12.46C687.971 11.7 688.551 11.1067 689.284 10.68C690.031 10.24 690.877 10.02 691.824 10.02C693.211 10.02 694.304 10.46 695.104 11.34C695.917 12.22 696.324 13.42 696.324 14.94V15.68L689.324 15.68C689.511 17.4267 690.511 18.3 692.324 18.3C692.871 18.3 693.417 18.22 693.964 18.06C694.511 17.8867 695.011 17.62 695.464 17.26L696.164 18.94C695.697 19.3267 695.111 19.6333 694.404 19.86C693.697 20.0867 692.991 20.2 692.284 20.2ZM691.924 11.72C691.191 11.72 690.597 11.9467 690.144 12.4C689.691 12.8533 689.417 13.4667 689.324 14.24L694.244 14.24C694.191 13.4267 693.964 12.8067 693.564 12.38C693.177 11.94 692.631 11.72 691.924 11.72ZM701.524 20.2C700.817 20.2 700.184 20.0667 699.624 19.8C699.077 19.52 698.644 19.1467 698.324 18.68C698.017 18.2133 697.864 17.6867 697.864 17.1C697.864 16.38 698.051 15.8133 698.424 15.4C698.797 14.9733 699.404 14.6667 700.244 14.48C701.084 14.2933 702.211 14.2 703.624 14.2L704.324 14.2V13.78C704.324 13.1133 704.177 12.6333 703.884 12.34C703.591 12.0467 703.097 11.9 702.404 11.9C701.857 11.9 701.297 11.9867 700.724 12.16C700.151 12.32 699.571 12.5733 698.984 12.92L698.264 11.22C698.611 10.98 699.017 10.7733 699.484 10.6C699.964 10.4133 700.464 10.2733 700.984 10.18C701.517 10.0733 702.017 10.02 702.484 10.02C703.911 10.02 704.971 10.3533 705.664 11.02C706.357 11.6733 706.704 12.6933 706.704 14.08V20L704.364 20V18.44C704.137 18.9867 703.777 19.42 703.284 19.74C702.791 20.0467 702.204 20.2 701.524 20.2ZM702.044 18.48C702.697 18.48 703.237 18.2533 703.664 17.8C704.104 17.3467 704.324 16.7733 704.324 16.08V15.64L703.644 15.64C702.391 15.64 701.517 15.74 701.024 15.94C700.544 16.1267 700.304 16.4733 700.304 16.98C700.304 17.42 700.457 17.78 700.764 18.06C701.071 18.34 701.497 18.48 702.044 18.48ZM712.641 20.2C711.481 20.2 710.621 19.8867 710.061 19.26C709.515 18.62 709.241 17.6867 709.241 16.46V5.9L711.741 5.9V16.34C711.741 17.54 712.248 18.14 713.261 18.14C713.408 18.14 713.555 18.1333 713.701 18.12C713.848 18.1067 713.988 18.08 714.121 18.04L714.081 20.02C713.601 20.14 713.121 20.2 712.641 20.2ZM719.854 20.2C717.268 20.2 715.974 18.92 715.974 16.36V12.1L714.094 12.1V10.22L715.974 10.22V7.3L718.474 7.3V10.22L721.434 10.22V12.1L718.474 12.1V16.22C718.474 16.86 718.614 17.34 718.894 17.66C719.174 17.98 719.628 18.14 720.254 18.14C720.441 18.14 720.634 18.12 720.834 18.08C721.034 18.0267 721.241 17.9733 721.454 17.92L721.834 19.76C721.594 19.8933 721.288 20 720.914 20.08C720.554 20.16 720.201 20.2 719.854 20.2ZM723.05 20V5.9L725.55 5.9V11.64C725.883 11.1067 726.33 10.7067 726.89 10.44C727.45 10.16 728.07 10.02 728.75 10.02C731.057 10.02 732.21 11.36 732.21 14.04V20L729.71 20V14.16C729.71 13.4 729.563 12.8467 729.27 12.5C728.99 12.1533 728.55 11.98 727.95 11.98C727.217 11.98 726.63 12.2133 726.19 12.68C725.763 13.1333 725.55 13.74 725.55 14.5V20L723.05 20ZM735.532 23.6L737.332 19.6L733.272 10.22L735.932 10.22L738.672 17.06L741.472 10.22L743.992 10.22L738.112 23.6L735.532 23.6Z" fill="#2D3140"/>
<path d="M1048.54 20V5.9L1051.1 5.9V11.78L1058.36 11.78V5.9L1060.92 5.9V20L1058.36 20V13.92L1051.1 13.92V20L1048.54 20ZM1066.99 20.2C1066.28 20.2 1065.65 20.0667 1065.09 19.8C1064.54 19.52 1064.11 19.1467 1063.79 18.68C1063.48 18.2133 1063.33 17.6867 1063.33 17.1C1063.33 16.38 1063.52 15.8133 1063.89 15.4C1064.26 14.9733 1064.87 14.6667 1065.71 14.48C1066.55 14.2933 1067.68 14.2 1069.09 14.2L1069.79 14.2V13.78C1069.79 13.1133 1069.64 12.6333 1069.35 12.34C1069.06 12.0467 1068.56 11.9 1067.87 11.9C1067.32 11.9 1066.76 11.9867 1066.19 12.16C1065.62 12.32 1065.04 12.5733 1064.45 12.92L1063.73 11.22C1064.08 10.98 1064.48 10.7733 1064.95 10.6C1065.43 10.4133 1065.93 10.2733 1066.45 10.18C1066.98 10.0733 1067.48 10.02 1067.95 10.02C1069.38 10.02 1070.44 10.3533 1071.13 11.02C1071.82 11.6733 1072.17 12.6933 1072.17 14.08V20L1069.83 20V18.44C1069.6 18.9867 1069.24 19.42 1068.75 19.74C1068.26 20.0467 1067.67 20.2 1066.99 20.2ZM1067.51 18.48C1068.16 18.48 1068.7 18.2533 1069.13 17.8C1069.57 17.3467 1069.79 16.7733 1069.79 16.08V15.64L1069.11 15.64C1067.86 15.64 1066.98 15.74 1066.49 15.94C1066.01 16.1267 1065.77 16.4733 1065.77 16.98C1065.77 17.42 1065.92 17.78 1066.23 18.06C1066.54 18.34 1066.96 18.48 1067.51 18.48ZM1074.39 20V18.38L1079.43 12.1L1074.39 12.1V10.22L1082.15 10.22V11.84L1077.11 18.12L1082.37 18.12V20L1074.39 20ZM1087.3 20.2C1086.59 20.2 1085.96 20.0667 1085.4 19.8C1084.85 19.52 1084.42 19.1467 1084.1 18.68C1083.79 18.2133 1083.64 17.6867 1083.64 17.1C1083.64 16.38 1083.83 15.8133 1084.2 15.4C1084.57 14.9733 1085.18 14.6667 1086.02 14.48C1086.86 14.2933 1087.99 14.2 1089.4 14.2L1090.1 14.2V13.78C1090.1 13.1133 1089.95 12.6333 1089.66 12.34C1089.37 12.0467 1088.87 11.9 1088.18 11.9C1087.63 11.9 1087.07 11.9867 1086.5 12.16C1085.93 12.32 1085.35 12.5733 1084.76 12.92L1084.04 11.22C1084.39 10.98 1084.79 10.7733 1085.26 10.6C1085.74 10.4133 1086.24 10.2733 1086.76 10.18C1087.29 10.0733 1087.79 10.02 1088.26 10.02C1089.69 10.02 1090.75 10.3533 1091.44 11.02C1092.13 11.6733 1092.48 12.6933 1092.48 14.08V20L1090.14 20V18.44C1089.91 18.9867 1089.55 19.42 1089.06 19.74C1088.57 20.0467 1087.98 20.2 1087.3 20.2ZM1087.82 18.48C1088.47 18.48 1089.01 18.2533 1089.44 17.8C1089.88 17.3467 1090.1 16.7733 1090.1 16.08V15.64L1089.42 15.64C1088.17 15.64 1087.29 15.74 1086.8 15.94C1086.32 16.1267 1086.08 16.4733 1086.08 16.98C1086.08 17.42 1086.23 17.78 1086.54 18.06C1086.85 18.34 1087.27 18.48 1087.82 18.48ZM1095.02 20V10.22L1097.46 10.22V11.94C1097.94 10.78 1098.97 10.14 1100.54 10.02L1101.3 9.96L1101.46 12.08L1100.02 12.22C1098.38 12.38 1097.56 13.22 1097.56 14.74V20L1095.02 20ZM1106.45 20.2C1105.6 20.2 1104.85 19.9933 1104.19 19.58C1103.55 19.1667 1103.05 18.58 1102.69 17.82C1102.33 17.0467 1102.15 16.14 1102.15 15.1C1102.15 14.0467 1102.33 13.1467 1102.69 12.4C1103.05 11.64 1103.55 11.0533 1104.19 10.64C1104.85 10.2267 1105.6 10.02 1106.45 10.02C1107.15 10.02 1107.77 10.1733 1108.33 10.48C1108.89 10.7867 1109.31 11.1933 1109.59 11.7V5.9L1112.09 5.9V20L1109.65 20V18.38C1109.39 18.94 1108.97 19.3867 1108.39 19.72C1107.82 20.04 1107.17 20.2 1106.45 20.2ZM1107.15 18.3C1107.9 18.3 1108.5 18.0333 1108.95 17.5C1109.41 16.9533 1109.63 16.1533 1109.63 15.1C1109.63 14.0333 1109.41 13.24 1108.95 12.72C1108.5 12.1867 1107.9 11.92 1107.15 11.92C1106.41 11.92 1105.81 12.1867 1105.35 12.72C1104.9 13.24 1104.67 14.0333 1104.67 15.1C1104.67 16.1533 1104.9 16.9533 1105.35 17.5C1105.81 18.0333 1106.41 18.3 1107.15 18.3ZM1119.15 20.2C1118.13 20.2 1117.25 19.9933 1116.51 19.58C1115.76 19.1667 1115.18 18.58 1114.77 17.82C1114.35 17.0467 1114.15 16.14 1114.15 15.1C1114.15 14.06 1114.35 13.16 1114.77 12.4C1115.18 11.64 1115.76 11.0533 1116.51 10.64C1117.25 10.2267 1118.13 10.02 1119.15 10.02C1120.16 10.02 1121.04 10.2267 1121.79 10.64C1122.53 11.0533 1123.11 11.64 1123.53 12.4C1123.94 13.16 1124.15 14.06 1124.15 15.1C1124.15 16.14 1123.94 17.0467 1123.53 17.82C1123.11 18.58 1122.53 19.1667 1121.79 19.58C1121.04 19.9933 1120.16 20.2 1119.15 20.2ZM1119.15 18.3C1119.89 18.3 1120.49 18.0333 1120.95 17.5C1121.4 16.9533 1121.63 16.1533 1121.63 15.1C1121.63 14.0333 1121.4 13.24 1120.95 12.72C1120.49 12.1867 1119.89 11.92 1119.15 11.92C1118.4 11.92 1117.8 12.1867 1117.35 12.72C1116.89 13.24 1116.67 14.0333 1116.67 15.1C1116.67 16.1533 1116.89 16.9533 1117.35 17.5C1117.8 18.0333 1118.4 18.3 1119.15 18.3ZM1129.75 20.2C1127.35 20.2 1126.15 18.8533 1126.15 16.16V10.22L1128.65 10.22V16.2C1128.65 16.8933 1128.79 17.4067 1129.07 17.74C1129.35 18.0733 1129.8 18.24 1130.41 18.24C1131.08 18.24 1131.62 18.0133 1132.05 17.56C1132.48 17.0933 1132.69 16.48 1132.69 15.72V10.22L1135.19 10.22V20L1132.75 20V18.54C1132.1 19.6467 1131.1 20.2 1129.75 20.2ZM1141.37 20.2C1140.55 20.2 1139.77 20.1 1139.05 19.9C1138.33 19.7 1137.73 19.4133 1137.25 19.04L1137.89 17.4C1138.39 17.7333 1138.94 17.9933 1139.55 18.18C1140.17 18.3533 1140.78 18.44 1141.39 18.44C1142.03 18.44 1142.51 18.3333 1142.81 18.12C1143.13 17.8933 1143.29 17.6 1143.29 17.24C1143.29 16.68 1142.88 16.32 1142.05 16.16L1140.05 15.78C1138.36 15.46 1137.51 14.58 1137.51 13.14C1137.51 12.5 1137.69 11.9467 1138.03 11.48C1138.39 11.0133 1138.89 10.6533 1139.51 10.4C1140.14 10.1467 1140.86 10.02 1141.67 10.02C1142.37 10.02 1143.03 10.12 1143.67 10.32C1144.31 10.5067 1144.86 10.7933 1145.31 11.18L1144.63 12.82C1144.25 12.5 1143.78 12.2467 1143.23 12.06C1142.7 11.8733 1142.19 11.78 1141.69 11.78C1141.04 11.78 1140.55 11.8933 1140.23 12.12C1139.93 12.3467 1139.77 12.6467 1139.77 13.02C1139.77 13.6067 1140.15 13.9667 1140.91 14.1L1142.91 14.48C1143.78 14.64 1144.43 14.9333 1144.87 15.36C1145.33 15.7867 1145.55 16.36 1145.55 17.08C1145.55 18.0533 1145.17 18.82 1144.41 19.38C1143.65 19.9267 1142.64 20.2 1141.37 20.2Z" fill="#2D3140"/>
<path d="M-1.08467e-07 34.5C-4.85624e-08 32.0147 2.01472 30 4.5 30L199 30L199 39L4.5 39C2.01471 39 -1.68372e-07 36.9853 -1.08467e-07 34.5Z" fill="#59B61F"/>
<rect x="203" y="30" width="199" height="9" fill="#EEC732"/>
<rect x="405" y="30" width="196" height="9" fill="#EA8C34"/>
<rect x="605" y="30" width="199" height="9" fill="#E95478"/>
<rect x="808" y="30" width="199" height="9" fill="#B33FBA"/>
<path d="M1011 30L1205.5 30C1207.99 30 1210 32.0147 1210 34.5C1210 36.9853 1207.99 39 1205.5 39L1011 39L1011 30Z" fill="#C92033"/>
</svg>
