<svg xmlns="http://www.w3.org/2000/svg" width="284" height="65" viewBox="0 0 284 65" fill="none">
<rect opacity="0.2" x="163.647" y="60.7861" width="60.7861" height="3.52383" transform="rotate(-90 163.647 60.7861)" fill="url(#paint0_linear_379_43428)"/>
<path d="M1.80022 39.075V23.5975H8.21074C9.87923 23.5975 11.1672 24.0146 12.0746 24.8489C12.982 25.6685 13.4358 26.8247 13.4358 28.3176C13.4358 29.8251 12.982 30.9959 12.0746 31.8302C11.1672 32.6498 9.87923 33.0596 8.21074 33.0596H4.08342V39.075H1.80022ZM4.08342 31.2374H7.88143C10.1061 31.2374 11.2184 30.2641 11.2184 28.3176C11.2184 26.3856 10.1061 25.4197 7.88143 25.4197H4.08342V31.2374ZM19.7626 39.2725C18.6795 39.2725 17.7428 39.0457 16.9525 38.592C16.1622 38.1383 15.5474 37.5016 15.1084 36.682C14.6839 35.8477 14.4717 34.8598 14.4717 33.7182C14.4717 32.5766 14.6839 31.596 15.1084 30.7764C15.5474 29.9421 16.1622 29.2982 16.9525 28.8445C17.7428 28.3907 18.6795 28.1639 19.7626 28.1639C20.8164 28.1639 21.7384 28.3907 22.5288 28.8445C23.3191 29.2982 23.9338 29.9421 24.3729 30.7764C24.812 31.596 25.0315 32.5766 25.0315 33.7182C25.0315 34.8598 24.812 35.8477 24.3729 36.682C23.9338 37.5016 23.3191 38.1383 22.5288 38.592C21.7384 39.0457 20.8164 39.2725 19.7626 39.2725ZM19.7626 37.5601C20.67 37.5601 21.4018 37.2308 21.958 36.5722C22.5141 35.9136 22.7922 34.9623 22.7922 33.7182C22.7922 32.4742 22.5141 31.5301 21.958 30.8862C21.4018 30.2275 20.67 29.8982 19.7626 29.8982C18.8405 29.8982 18.1014 30.2275 17.5452 30.8862C16.9891 31.5301 16.711 32.4742 16.711 33.7182C16.711 34.9623 16.9891 35.9136 17.5452 36.5722C18.1014 37.2308 18.8405 37.5601 19.7626 37.5601ZM30.2267 39.075L26.1433 28.3615H28.4265L31.3024 36.4844L34.2662 28.3615H35.9786L38.8985 36.5283L41.8183 28.3615H43.9917L39.9083 39.075H37.8886L35.0565 31.4131L32.2464 39.075H30.2267ZM50.7297 39.2725C48.9734 39.2725 47.5903 38.7822 46.5804 37.8016C45.5705 36.8064 45.0656 35.4526 45.0656 33.7402C45.0656 32.6425 45.2851 31.6765 45.7242 30.8423C46.1779 29.9934 46.8 29.3348 47.5903 28.8664C48.3806 28.3981 49.2881 28.1639 50.3126 28.1639C51.7908 28.1639 52.9544 28.6396 53.8032 29.5909C54.6521 30.5276 55.0766 31.8229 55.0766 33.4767V34.2231H47.2171C47.3781 36.4478 48.5563 37.5601 50.7516 37.5601C51.3664 37.5601 51.9664 37.465 52.5519 37.2747C53.1519 37.0845 53.7154 36.7698 54.2423 36.3307L54.9009 37.8675C54.4179 38.3066 53.7959 38.6505 53.0349 38.8993C52.2738 39.1481 51.5054 39.2725 50.7297 39.2725ZM50.4004 29.7226C49.4783 29.7226 48.7465 30.008 48.205 30.5788C47.6635 31.1496 47.3342 31.9107 47.2171 32.862H53.2105C53.1666 31.8668 52.9031 31.0984 52.4201 30.5569C51.9372 30.0007 51.2639 29.7226 50.4004 29.7226ZM57.4939 39.075V28.3615H59.6454V30.2715C60.2015 28.9981 61.3578 28.2883 63.1141 28.1419L63.8385 28.098L63.9922 29.9861L62.653 30.1178C60.7065 30.308 59.7332 31.3106 59.7332 33.1255V39.075H57.4939ZM70.5611 39.2725C68.8048 39.2725 67.4217 38.7822 66.4118 37.8016C65.4019 36.8064 64.897 35.4526 64.897 33.7402C64.897 32.6425 65.1165 31.6765 65.5556 30.8423C66.0093 29.9934 66.6313 29.3348 67.4217 28.8664C68.212 28.3981 69.1194 28.1639 70.1439 28.1639C71.6222 28.1639 72.7857 28.6396 73.6346 29.5909C74.4835 30.5276 74.9079 31.8229 74.9079 33.4767V34.2231H67.0484C67.2094 36.4478 68.3876 37.5601 70.583 37.5601C71.1977 37.5601 71.7978 37.465 72.3832 37.2747C72.9833 37.0845 73.5468 36.7698 74.0737 36.3307L74.7323 37.8675C74.2493 38.3066 73.6273 38.6505 72.8662 38.8993C72.1051 39.1481 71.3368 39.2725 70.5611 39.2725ZM70.2318 29.7226C69.3097 29.7226 68.5779 30.008 68.0364 30.5788C67.4948 31.1496 67.1655 31.9107 67.0484 32.862H73.0418C72.9979 31.8668 72.7345 31.0984 72.2515 30.5569C71.7685 30.0007 71.0953 29.7226 70.2318 29.7226ZM81.4087 39.2725C80.472 39.2725 79.645 39.053 78.9279 38.6139C78.2254 38.1602 77.6765 37.5162 77.2813 36.682C76.8862 35.8477 76.6886 34.8598 76.6886 33.7182C76.6886 32.5766 76.8862 31.596 77.2813 30.7764C77.6765 29.9421 78.2254 29.2982 78.9279 28.8445C79.6304 28.3907 80.4573 28.1639 81.4087 28.1639C82.2136 28.1639 82.9308 28.3395 83.5601 28.6908C84.1895 29.042 84.6578 29.5177 84.9652 30.1178V23.5975H87.1825V39.075H85.0091V37.2089C84.7017 37.8529 84.2261 38.3578 83.5821 38.7237C82.9528 39.0896 82.2283 39.2725 81.4087 39.2725ZM81.9795 37.5601C82.8869 37.5601 83.6187 37.2308 84.1749 36.5722C84.731 35.9136 85.0091 34.9623 85.0091 33.7182C85.0091 32.4742 84.731 31.5301 84.1749 30.8862C83.6187 30.2275 82.8869 29.8982 81.9795 29.8982C81.0574 29.8982 80.3183 30.2275 79.7621 30.8862C79.206 31.5301 78.9279 32.4742 78.9279 33.7182C78.9279 34.9623 79.206 35.9136 79.7621 36.5722C80.3183 37.2308 81.0574 37.5601 81.9795 37.5601ZM101.815 39.2725C100.996 39.2725 100.271 39.0896 99.6417 38.7237C99.0123 38.3578 98.544 37.8675 98.2366 37.2528V39.075H96.0632V23.5975H98.2805V30.0958C98.6025 29.5104 99.0709 29.042 99.6856 28.6908C100.315 28.3395 101.025 28.1639 101.815 28.1639C102.766 28.1639 103.593 28.3907 104.296 28.8445C105.013 29.2982 105.562 29.9421 105.942 30.7764C106.338 31.596 106.535 32.5766 106.535 33.7182C106.535 34.8598 106.338 35.8477 105.942 36.682C105.562 37.5162 105.013 38.1602 104.296 38.6139C103.593 39.053 102.766 39.2725 101.815 39.2725ZM101.266 37.5601C102.188 37.5601 102.92 37.2308 103.462 36.5722C104.018 35.9136 104.296 34.9623 104.296 33.7182C104.296 32.4742 104.018 31.5301 103.462 30.8862C102.92 30.2275 102.188 29.8982 101.266 29.8982C100.344 29.8982 99.6051 30.2275 99.0489 30.8862C98.5074 31.5301 98.2366 32.4742 98.2366 33.7182C98.2366 34.9623 98.5074 35.9136 99.0489 36.5722C99.6051 37.2308 100.344 37.5601 101.266 37.5601ZM109.939 43.0266L111.849 38.7896L107.37 28.3615H109.741L113.034 36.5064L116.371 28.3615H118.654L112.266 43.0266H109.939Z" fill="#31343D"/>
<path d="M260.826 36.9775V2.65942H264.262V36.9775H260.826Z" fill="url(#paint1_linear_379_43428)"/>
<path d="M212.685 2.64502H215.581L230.061 36.9763H226.454L221.939 26.2346H206.261L201.798 36.9763H198.126L212.685 2.64502ZM221.189 23.5755L214.107 6.60733L206.998 23.5755H221.189Z" fill="url(#paint2_linear_379_43428)"/>
<path d="M254.452 31.7634C256.11 30.242 257.417 28.3774 258.281 26.2995C259.145 24.2215 259.545 21.9802 259.454 19.7317C259.459 16.7488 258.659 13.82 257.138 11.2542C255.632 8.65479 253.478 6.49106 250.885 4.97502C248.354 3.44826 245.455 2.64253 242.499 2.64503H242.157V6.39671H242.328C244.024 6.39003 245.707 6.69801 247.291 7.30502C248.848 7.87045 250.275 8.74504 251.485 9.87616C252.695 11.0073 253.664 12.3716 254.334 13.8869C255.08 15.4778 255.476 17.2109 255.492 18.9682C255.605 22.6694 254.295 26.2731 251.833 29.0385L246.804 23.8914H241.762L249.081 31.1842C247.098 32.4042 244.827 33.0765 242.499 33.1324C239.515 33.1491 236.641 32.007 234.483 29.9468L232.205 33.1851C233.409 34.1604 234.737 34.9705 236.154 35.5941C238.279 36.5242 240.575 36.9952 242.894 36.9763C246.122 36.8933 249.244 35.8126 251.833 33.8828L254.636 36.7656H259.454L254.452 31.7634Z" fill="url(#paint3_linear_379_43428)"/>
<path d="M226.994 14.0711L230.733 15.3085C231.039 14.3557 231.445 13.438 231.944 12.5704C232.311 11.9517 232.724 11.362 233.181 10.8064L230.404 8.2395C228.891 9.93752 227.732 11.92 226.994 14.0711Z" fill="#EA4D9A"/>
<path d="M235.669 4.13377L237.183 7.70117L237.617 7.50371C239.034 6.81301 240.583 6.43585 242.159 6.39795V2.65942C239.913 2.66252 237.696 3.16618 235.669 4.13377Z" fill="#BD202E"/>
<path d="M235.67 4.14598C233.827 5.0478 232.173 6.29452 230.799 7.81868C230.668 7.95032 230.549 8.09512 230.431 8.23992L233.235 10.8727C234.32 9.56654 235.665 8.49974 237.184 7.7397L235.67 4.13281V4.14598Z" fill="#9858A2"/>
<path d="M232.208 33.1842L234.485 29.9459C234.231 29.7089 233.981 29.4588 233.735 29.1955C232.71 28.1395 231.862 26.9262 231.221 25.6018L227.838 27.6159C228.868 29.7704 230.36 31.6716 232.208 33.1842Z" fill="#A6C639"/>
<path d="M227.272 26.3393C227.443 26.7737 227.64 27.195 227.838 27.6557L231.221 25.6416C230.453 24.0234 230.04 22.2594 230.01 20.4683L226.061 20.9027C226.153 22.7705 226.562 24.6091 227.272 26.3393Z" fill="#F7EC33"/>
<path d="M226.047 20.1132C226.047 20.3633 226.047 20.6135 226.047 20.8636L229.996 20.4292C229.996 20.3239 229.996 20.2185 229.996 20.1132C229.987 18.4827 230.236 16.861 230.734 15.3084L226.995 14.071C226.35 16.0196 226.03 18.0609 226.047 20.1132Z" fill="#EA7451"/>
<path d="M267.789 8.62069C269.432 8.62069 270.764 7.32409 270.764 5.72465C270.764 4.12521 269.432 2.82861 267.789 2.82861C266.146 2.82861 264.814 4.12521 264.814 5.72465C264.814 7.32409 266.146 8.62069 267.789 8.62069Z" fill="#209EC9"/>
<path d="M267.79 8.01582C269.099 8.01582 270.159 6.99033 270.159 5.72532C270.159 4.46031 269.099 3.43481 267.79 3.43481C266.481 3.43481 265.42 4.46031 265.42 5.72532C265.42 6.99033 266.481 8.01582 267.79 8.01582Z" fill="#6B5151"/>
<path d="M269.144 6.97454L268.578 5.98725C268.677 5.93663 268.77 5.87479 268.855 5.80296C268.952 5.70559 269.028 5.58798 269.076 5.45837C269.124 5.32876 269.142 5.19028 269.131 5.05262C269.105 4.80832 268.987 4.58303 268.801 4.42191C268.616 4.26079 268.376 4.17574 268.131 4.18381H266.867C266.854 4.18191 266.84 4.18288 266.827 4.18665C266.815 4.19042 266.803 4.19691 266.793 4.20566C266.783 4.21441 266.775 4.22523 266.77 4.23736C266.764 4.2495 266.761 4.26266 266.761 4.27595V7.02719C266.761 7.04048 266.764 7.05365 266.77 7.06578C266.775 7.07792 266.783 7.08873 266.793 7.09749C266.803 7.10624 266.815 7.11272 266.827 7.1165C266.84 7.12027 266.854 7.12124 266.867 7.11934H267.38C267.406 7.11954 267.431 7.11027 267.45 7.09329C267.47 7.0763 267.482 7.05278 267.485 7.02719V5.98725H267.841L268.381 7.02719C268.395 7.03528 268.411 7.03954 268.427 7.03954C268.443 7.03954 268.459 7.03528 268.473 7.02719H269.052C269.067 7.03335 269.082 7.03652 269.098 7.03652C269.114 7.03652 269.13 7.03335 269.144 7.02719C269.157 6.99333 269.157 6.95574 269.144 6.92188V6.97454ZM268.144 5.42121H267.485V4.67087H268.144C268.239 4.67081 268.331 4.70783 268.4 4.77413C268.469 4.84043 268.509 4.93084 268.512 5.02629C268.516 5.07686 268.509 5.12764 268.492 5.17544C268.475 5.22324 268.449 5.26705 268.414 5.30411C268.379 5.34118 268.338 5.37071 268.291 5.39086C268.245 5.411 268.194 5.42134 268.144 5.42121Z" fill="#209EC9"/>
<path d="M189.779 60.8855L186.995 51.0307H189.362L191.095 57.9599H191.185L192.955 51.0307H195.297L197.068 57.9214H197.164L198.871 51.0307H201.245L198.454 60.8855H196.035L194.187 54.2258H194.052L192.205 60.8855H189.779ZM204.9 60.8855L202.116 51.0307H204.483L206.215 57.9599H206.305L208.076 51.0307H210.418L212.188 57.9214H212.285L213.991 51.0307H216.365L213.574 60.8855H211.156L209.308 54.2258H209.173L207.325 60.8855H204.9ZM220.021 60.8855L217.236 51.0307H219.604L221.336 57.9599H221.426L223.196 51.0307H225.538L227.309 57.9214H227.405L229.112 51.0307H231.486L228.695 60.8855H226.276L224.428 54.2258H224.294L222.446 60.8855H220.021ZM233.197 61.0266C232.808 61.0266 232.474 60.8898 232.196 60.616C231.918 60.3423 231.781 60.0087 231.786 59.6152C231.781 59.2302 231.918 58.9009 232.196 58.6271C232.474 58.3534 232.808 58.2165 233.197 58.2165C233.574 58.2165 233.901 58.3534 234.179 58.6271C234.461 58.9009 234.604 59.2302 234.609 59.6152C234.604 59.8761 234.536 60.1135 234.403 60.3273C234.275 60.5412 234.104 60.7123 233.89 60.8406C233.681 60.9646 233.45 61.0266 233.197 61.0266ZM239.842 61.0844C239.218 61.0844 238.656 60.9732 238.155 60.7508C237.659 60.5241 237.265 60.1904 236.975 59.7499C236.688 59.3093 236.545 58.7661 236.545 58.1203C236.545 57.5642 236.647 57.1044 236.853 56.7408C237.058 56.3773 237.338 56.0864 237.693 55.8683C238.048 55.6501 238.448 55.4855 238.893 55.3743C239.342 55.2588 239.806 55.1754 240.285 55.124C240.863 55.0642 241.331 55.0107 241.69 54.9636C242.05 54.9123 242.31 54.8353 242.473 54.7327C242.64 54.6257 242.723 54.4611 242.723 54.2387V54.2002C242.723 53.7168 242.58 53.3426 242.293 53.0774C242.007 52.8122 241.594 52.6796 241.055 52.6796C240.486 52.6796 240.035 52.8036 239.701 53.0517C239.372 53.2998 239.15 53.5928 239.034 53.9307L236.866 53.6227C237.037 53.0239 237.319 52.5235 237.712 52.1214C238.106 51.7151 238.587 51.4114 239.156 51.2104C239.725 51.0051 240.354 50.9024 241.042 50.9024C241.517 50.9024 241.99 50.958 242.46 51.0692C242.931 51.1804 243.361 51.3643 243.75 51.621C244.139 51.8733 244.451 52.2177 244.686 52.6539C244.926 53.0902 245.046 53.6356 245.046 54.29V60.8855H242.813V59.5317H242.736C242.595 59.8055 242.396 60.0621 242.139 60.3017C241.887 60.5369 241.568 60.7272 241.183 60.8727C240.803 61.0138 240.356 61.0844 239.842 61.0844ZM240.446 59.3778C240.912 59.3778 241.316 59.2858 241.658 59.1019C242 58.9137 242.263 58.6656 242.447 58.3576C242.636 58.0497 242.73 57.7139 242.73 57.3504V56.1891C242.657 56.249 242.533 56.3046 242.357 56.3559C242.186 56.4072 241.994 56.4521 241.78 56.4906C241.566 56.5291 241.354 56.5633 241.145 56.5933C240.935 56.6232 240.754 56.6489 240.6 56.6703C240.253 56.7173 239.943 56.7943 239.669 56.9012C239.395 57.0082 239.179 57.1579 239.021 57.3504C238.863 57.5386 238.784 57.7824 238.784 58.0818C238.784 58.5095 238.94 58.8324 239.252 59.0506C239.564 59.2687 239.962 59.3778 240.446 59.3778ZM253.957 64.581V59.3329H253.861C253.741 59.5724 253.568 59.8269 253.341 60.0963C253.115 60.3615 252.815 60.5882 252.443 60.7764C252.071 60.9646 251.603 61.0587 251.038 61.0587C250.264 61.0587 249.571 60.8598 248.959 60.4621C248.348 60.0643 247.864 59.4868 247.509 58.7298C247.154 57.9727 246.977 57.0531 246.977 55.9709C246.977 54.876 247.157 53.9521 247.516 53.1993C247.879 52.4422 248.369 51.8712 248.985 51.4862C249.601 51.097 250.288 50.9024 251.045 50.9024C251.622 50.9024 252.097 51.0008 252.469 51.1975C252.841 51.39 253.136 51.6231 253.354 51.8969C253.572 52.1663 253.741 52.4208 253.861 52.6604H254.002V51.0307H256.286V64.581H253.957ZM251.686 59.1532C252.178 59.1532 252.597 59.0206 252.944 58.7554C253.29 58.486 253.553 58.1117 253.733 57.6327C253.912 57.1536 254.002 56.5954 254.002 55.9581C254.002 55.3208 253.912 54.7669 253.733 54.2964C253.557 53.8259 253.297 53.4602 252.95 53.1993C252.608 52.9384 252.187 52.8079 251.686 52.8079C251.169 52.8079 250.737 52.9427 250.39 53.2121C250.044 53.4816 249.783 53.8537 249.607 54.3285C249.432 54.8033 249.344 55.3465 249.344 55.9581C249.344 56.574 249.432 57.1237 249.607 57.607C249.787 58.086 250.05 58.4646 250.397 58.7426C250.747 59.0163 251.177 59.1532 251.686 59.1532ZM258.673 60.8855V51.0307H260.996V60.8855H258.673ZM259.841 49.6321C259.473 49.6321 259.156 49.5102 258.891 49.2664C258.626 49.0183 258.493 48.721 258.493 48.3746C258.493 48.0238 258.626 47.7265 258.891 47.4827C259.156 47.2347 259.473 47.1106 259.841 47.1106C260.213 47.1106 260.529 47.2347 260.79 47.4827C261.055 47.7265 261.188 48.0238 261.188 48.3746C261.188 48.721 261.055 49.0183 260.79 49.2664C260.529 49.5102 260.213 49.6321 259.841 49.6321ZM264.815 61.0266C264.425 61.0266 264.092 60.8898 263.814 60.616C263.536 60.3423 263.399 60.0087 263.403 59.6152C263.399 59.2302 263.536 58.9009 263.814 58.6271C264.092 58.3534 264.425 58.2165 264.815 58.2165C265.191 58.2165 265.518 58.3534 265.796 58.6271C266.079 58.9009 266.222 59.2302 266.226 59.6152C266.222 59.8761 266.153 60.1135 266.021 60.3273C265.893 60.5412 265.721 60.7123 265.508 60.8406C265.298 60.9646 265.067 61.0266 264.815 61.0266ZM268.624 60.8855V51.0307H270.947V60.8855H268.624ZM269.792 49.6321C269.424 49.6321 269.107 49.5102 268.842 49.2664C268.577 49.0183 268.444 48.721 268.444 48.3746C268.444 48.0238 268.577 47.7265 268.842 47.4827C269.107 47.2347 269.424 47.1106 269.792 47.1106C270.164 47.1106 270.48 47.2347 270.741 47.4827C271.006 47.7265 271.139 48.0238 271.139 48.3746C271.139 48.721 271.006 49.0183 270.741 49.2664C270.48 49.5102 270.164 49.6321 269.792 49.6321ZM275.657 55.1112V60.8855H273.335V51.0307H275.555V52.7053H275.67C275.897 52.1535 276.258 51.7151 276.755 51.39C277.255 51.0649 277.873 50.9024 278.609 50.9024C279.289 50.9024 279.881 51.0478 280.386 51.3387C280.895 51.6295 281.288 52.0508 281.566 52.6026C281.849 53.1544 281.988 53.8238 281.984 54.6108V60.8855H279.661V54.9701C279.661 54.3114 279.49 53.796 279.148 53.4238C278.81 53.0517 278.341 52.8657 277.743 52.8657C277.336 52.8657 276.975 52.9555 276.658 53.1351C276.346 53.3105 276.1 53.565 275.921 53.8986C275.745 54.2322 275.657 54.6364 275.657 55.1112Z" fill="#27AAE0"/>
<defs>
<linearGradient id="paint0_linear_379_43428" x1="223.996" y1="64.3107" x2="164.413" y2="64.3106" gradientUnits="userSpaceOnUse">
<stop stop-color="#BEBEBE" stop-opacity="0.18"/>
<stop offset="0.461458" stop-color="#635E5E"/>
<stop offset="1" stop-color="#BEBEBE" stop-opacity="0.18"/>
</linearGradient>
<linearGradient id="paint1_linear_379_43428" x1="180.777" y1="36.0824" x2="299.462" y2="12.4796" gradientUnits="userSpaceOnUse">
<stop stop-color="#2D86BA"/>
<stop offset="0.12" stop-color="#2C89BD"/>
<stop offset="0.18" stop-color="#2D8CBF"/>
<stop offset="0.25" stop-color="#2A99CE"/>
<stop offset="0.34" stop-color="#28A2D8"/>
<stop offset="0.47" stop-color="#27649D"/>
<stop offset="0.48" stop-color="#27316C"/>
<stop offset="0.49" stop-color="#27558E"/>
<stop offset="0.5" stop-color="#2682BA"/>
<stop offset="0.51" stop-color="#26A9E0"/>
<stop offset="0.52" stop-color="#262261"/>
<stop offset="0.56" stop-color="#2D5D90"/>
<stop offset="0.62" stop-color="#2B9ACF"/>
<stop offset="0.67" stop-color="#26A9E0"/>
</linearGradient>
<linearGradient id="paint2_linear_379_43428" x1="163.386" y1="40.4778" x2="285.586" y2="-3.08123" gradientUnits="userSpaceOnUse">
<stop stop-color="#272664"/>
<stop offset="0.09" stop-color="#272A67"/>
<stop offset="0.14" stop-color="#262261"/>
<stop offset="0.23" stop-color="#272C68"/>
<stop offset="0.24" stop-color="#27346E"/>
<stop offset="0.25" stop-color="#293870"/>
<stop offset="0.35" stop-color="#2E88BC"/>
<stop offset="0.46" stop-color="#26A9E0"/>
<stop offset="0.49" stop-color="#2D83B7"/>
<stop offset="0.55" stop-color="#2A4178"/>
<stop offset="0.74" stop-color="#2B4D81"/>
<stop offset="0.78" stop-color="#26A9E0"/>
<stop offset="0.81" stop-color="#26A9E0"/>
</linearGradient>
<linearGradient id="paint3_linear_379_43428" x1="166.676" y1="49.6925" x2="287.704" y2="6.56785" gradientUnits="userSpaceOnUse">
<stop stop-color="#262261"/>
<stop offset="0.11" stop-color="#262766"/>
<stop offset="0.23" stop-color="#263573"/>
<stop offset="0.37" stop-color="#264D8A"/>
<stop offset="0.51" stop-color="#266EA9"/>
<stop offset="0.66" stop-color="#2699D1"/>
<stop offset="0.71" stop-color="#26A9E0"/>
</linearGradient>
</defs>
</svg>